<?xml version="1.0" standalone="no"?>
<!DOCTYPE svg PUBLIC "-//W3C//DTD SVG 20010904//EN"
 "http://www.w3.org/TR/2001/REC-SVG-20010904/DTD/svg10.dtd">
<svg version="1.0" xmlns="http://www.w3.org/2000/svg"
 width="80.000000pt" height="80.000000pt" viewBox="0 0 80.000000 80.000000"
 preserveAspectRatio="xMidYMid meet">
<metadata>
Created by potrace 1.14, written by Peter Selinger 2001-2017
</metadata>
<g transform="translate(0.000000,80.000000) scale(0.100000,-0.100000)"
fill="#000000" stroke="none">
<path d="M71 671 c-17 -16 -31 -35 -32 -43 0 -7 -2 -24 -5 -37 -6 -34 30 -103
65 -124 26 -15 30 -15 41 -2 11 13 7 21 -23 49 -26 24 -37 42 -37 63 0 38 23
69 57 76 23 4 34 -2 63 -33 35 -38 36 -38 65 -23 81 43 168 44 246 3 l39 -20
16 26 c40 59 113 61 133 3 13 -37 1 -69 -34 -97 -16 -13 -25 -29 -23 -39 5
-26 38 -17 70 20 63 70 42 177 -40 202 -36 11 -88 -3 -113 -29 -22 -22 -24
-23 -58 -8 -51 21 -166 21 -218 0 -24 -10 -43 -14 -43 -9 0 18 -68 51 -103 51
-25 0 -44 -8 -66 -29z"/>
<path d="M355 579 c-39 -11 -73 -43 -91 -85 -18 -43 -18 -76 2 -117 16 -33 16
-33 -36 -119 -29 -48 -49 -92 -45 -97 15 -25 37 -6 86 75 l52 86 39 -6 c49 -8
111 10 139 40 33 35 38 113 9 158 -33 54 -96 80 -155 65z m103 -73 c22 -21 28
-49 23 -96 -2 -23 -54 -50 -94 -50 -51 0 -87 32 -87 79 0 89 95 130 158 67z"/>
<path d="M563 353 c-7 -3 -13 -18 -13 -35 0 -25 3 -29 23 -26 15 2 23 11 25
29 3 27 -12 40 -35 32z"/>
<path d="M620 340 c-13 -24 -5 -40 20 -40 20 0 32 22 24 45 -9 21 -31 19 -44
-5z"/>
<path d="M680 290 c-14 -26 -6 -40 20 -33 25 7 32 17 24 37 -9 22 -31 20 -44
-4z"/>
<path d="M497 294 c-9 -9 -9 -48 -1 -57 13 -13 45 14 42 36 -3 22 -28 34 -41
21z"/>
<path d="M548 220 c-66 -67 -62 -110 9 -110 17 0 43 -5 57 -11 31 -15 73 -4
81 20 8 27 -55 145 -80 148 -13 2 -37 -15 -67 -47z"/>
<path d="M697 221 c-3 -11 1 -22 9 -25 16 -6 47 22 39 35 -11 16 -43 9 -48
-10z"/>
</g>
</svg>
